<svg class="rich-terminal" viewBox="0 0 994 635.5999999999999" xmlns="http://www.w3.org/2000/svg">
    <!-- Generated with Rich https://www.textualize.io -->
    <style>

    @font-face {
        font-family: "Fira Code";
        src: local("FiraCode-Regular"),
                url("https://cdnjs.cloudflare.com/ajax/libs/firacode/6.2.0/woff2/FiraCode-Regular.woff2") format("woff2"),
                url("https://cdnjs.cloudflare.com/ajax/libs/firacode/6.2.0/woff/FiraCode-Regular.woff") format("woff");
        font-style: normal;
        font-weight: 400;
    }
    @font-face {
        font-family: "Fira Code";
        src: local("FiraCode-Bold"),
                url("https://cdnjs.cloudflare.com/ajax/libs/firacode/6.2.0/woff2/FiraCode-Bold.woff2") format("woff2"),
                url("https://cdnjs.cloudflare.com/ajax/libs/firacode/6.2.0/woff/FiraCode-Bold.woff") format("woff");
        font-style: bold;
        font-weight: 700;
    }

    .terminal-matrix {
        font-family: Fira Code, monospace;
        font-size: 20px;
        line-height: 24.4px;
        font-variant-east-asian: full-width;
    }

    .terminal-title {
        font-size: 18px;
        font-weight: bold;
        font-family: arial;
    }

    .terminal-r1 { fill: #f0f0e0 }
.terminal-r2 { fill: #9766b2;font-weight: bold }
.terminal-r3 { fill: #c5c8c6 }
.terminal-r4 { fill: #ff9ccd;font-weight: bold }
.terminal-r5 { fill: #908c8c }
.terminal-r6 { fill: #898983 }
.terminal-r7 { fill: #0f0f20 }
.terminal-r8 { fill: #9766b2;text-decoration: underline; }
.terminal-r9 { fill: #9766b2 }
.terminal-r10 { fill: #61536d }
.terminal-r11 { fill: #50505e }
.terminal-r12 { fill: #a8a89c }
.terminal-r13 { fill: #b26d8f;font-weight: bold }
.terminal-r14 { fill: #6f6f73 }
.terminal-r15 { fill: #3caf83 }
.terminal-r16 { fill: #5a5a5b }
.terminal-r17 { fill: #5f5f62 }
.terminal-r18 { fill: #5f5f62;font-weight: bold }
.terminal-r19 { fill: #1a192e }
.terminal-r20 { fill: #2c2b44 }
.terminal-r21 { fill: #707075 }
.terminal-r22 { fill: #b25c3c }
.terminal-r23 { fill: #090920 }
.terminal-r24 { fill: #0b0b1b }
.terminal-r25 { fill: #120d20 }
.terminal-r26 { fill: #b29f3c }
.terminal-r27 { fill: #787874 }
.terminal-r28 { fill: #26262e }
.terminal-r29 { fill: #73737c }
.terminal-r30 { fill: #893c6a }
.terminal-r31 { fill: #ff9ccd }
.terminal-r32 { fill: #94948e;font-weight: bold }
.terminal-r33 { fill: #94948e }
    </style>

    <defs>
    <clipPath id="terminal-clip-terminal">
      <rect x="0" y="0" width="975.0" height="584.5999999999999" />
    </clipPath>
    <clipPath id="terminal-line-0">
    <rect x="0" y="1.5" width="976" height="24.65"/>
            </clipPath>
<clipPath id="terminal-line-1">
    <rect x="0" y="25.9" width="976" height="24.65"/>
            </clipPath>
<clipPath id="terminal-line-2">
    <rect x="0" y="50.3" width="976" height="24.65"/>
            </clipPath>
<clipPath id="terminal-line-3">
    <rect x="0" y="74.7" width="976" height="24.65"/>
            </clipPath>
<clipPath id="terminal-line-4">
    <rect x="0" y="99.1" width="976" height="24.65"/>
            </clipPath>
<clipPath id="terminal-line-5">
    <rect x="0" y="123.5" width="976" height="24.65"/>
            </clipPath>
<clipPath id="terminal-line-6">
    <rect x="0" y="147.9" width="976" height="24.65"/>
            </clipPath>
<clipPath id="terminal-line-7">
    <rect x="0" y="172.3" width="976" height="24.65"/>
            </clipPath>
<clipPath id="terminal-line-8">
    <rect x="0" y="196.7" width="976" height="24.65"/>
            </clipPath>
<clipPath id="terminal-line-9">
    <rect x="0" y="221.1" width="976" height="24.65"/>
            </clipPath>
<clipPath id="terminal-line-10">
    <rect x="0" y="245.5" width="976" height="24.65"/>
            </clipPath>
<clipPath id="terminal-line-11">
    <rect x="0" y="269.9" width="976" height="24.65"/>
            </clipPath>
<clipPath id="terminal-line-12">
    <rect x="0" y="294.3" width="976" height="24.65"/>
            </clipPath>
<clipPath id="terminal-line-13">
    <rect x="0" y="318.7" width="976" height="24.65"/>
            </clipPath>
<clipPath id="terminal-line-14">
    <rect x="0" y="343.1" width="976" height="24.65"/>
            </clipPath>
<clipPath id="terminal-line-15">
    <rect x="0" y="367.5" width="976" height="24.65"/>
            </clipPath>
<clipPath id="terminal-line-16">
    <rect x="0" y="391.9" width="976" height="24.65"/>
            </clipPath>
<clipPath id="terminal-line-17">
    <rect x="0" y="416.3" width="976" height="24.65"/>
            </clipPath>
<clipPath id="terminal-line-18">
    <rect x="0" y="440.7" width="976" height="24.65"/>
            </clipPath>
<clipPath id="terminal-line-19">
    <rect x="0" y="465.1" width="976" height="24.65"/>
            </clipPath>
<clipPath id="terminal-line-20">
    <rect x="0" y="489.5" width="976" height="24.65"/>
            </clipPath>
<clipPath id="terminal-line-21">
    <rect x="0" y="513.9" width="976" height="24.65"/>
            </clipPath>
<clipPath id="terminal-line-22">
    <rect x="0" y="538.3" width="976" height="24.65"/>
            </clipPath>
    </defs>

    <rect fill="#292929" stroke="rgba(255,255,255,0.35)" stroke-width="1" x="1" y="1" width="992" height="633.6" rx="8"/><text class="terminal-title" fill="#c5c8c6" text-anchor="middle" x="496" y="27">Posting</text>
            <g transform="translate(26,22)">
            <circle cx="0" cy="0" r="7" fill="#ff5f57"/>
            <circle cx="22" cy="0" r="7" fill="#febc2e"/>
            <circle cx="44" cy="0" r="7" fill="#28c840"/>
            </g>
        
    <g transform="translate(9, 41)" clip-path="url(#terminal-clip-terminal)">
    <rect fill="#0a0a15" x="0" y="1.5" width="12.2" height="24.65" shape-rendering="crispEdges"/><rect fill="#0a0a15" x="12.2" y="1.5" width="85.4" height="24.65" shape-rendering="crispEdges"/><rect fill="#0a0a15" x="97.6" y="1.5" width="878.4" height="24.65" shape-rendering="crispEdges"/><rect fill="#572a4b" x="0" y="25.9" width="36.6" height="24.65" shape-rendering="crispEdges"/><rect fill="#331d4b" x="36.6" y="25.9" width="73.2" height="24.65" shape-rendering="crispEdges"/><rect fill="#0f0f20" x="109.8" y="25.9" width="122" height="24.65" shape-rendering="crispEdges"/><rect fill="#150e2e" x="231.8" y="25.9" width="12.2" height="24.65" shape-rendering="crispEdges"/><rect fill="#572a4b" x="244" y="25.9" width="12.2" height="24.65" shape-rendering="crispEdges"/><rect fill="#301944" x="256.2" y="25.9" width="12.2" height="24.65" shape-rendering="crispEdges"/><rect fill="#301944" x="268.4" y="25.9" width="24.4" height="24.65" shape-rendering="crispEdges"/><rect fill="#301944" x="292.8" y="25.9" width="61" height="24.65" shape-rendering="crispEdges"/><rect fill="#301944" x="353.8" y="25.9" width="12.2" height="24.65" shape-rendering="crispEdges"/><rect fill="#301944" x="366" y="25.9" width="12.2" height="24.65" shape-rendering="crispEdges"/><rect fill="#572a4b" x="378.2" y="25.9" width="12.2" height="24.65" shape-rendering="crispEdges"/><rect fill="#15152c" x="390.4" y="25.9" width="439.2" height="24.65" shape-rendering="crispEdges"/><rect fill="#15152c" x="829.6" y="25.9" width="36.6" height="24.65" shape-rendering="crispEdges"/><rect fill="#15152c" x="866.2" y="25.9" width="12.2" height="24.65" shape-rendering="crispEdges"/><rect fill="#3c1d34" x="878.4" y="25.9" width="12.2" height="24.65" shape-rendering="crispEdges"/><rect fill="#3c1d34" x="890.6" y="25.9" width="73.2" height="24.65" shape-rendering="crispEdges"/><rect fill="#3c1d34" x="963.8" y="25.9" width="12.2" height="24.65" shape-rendering="crispEdges"/><rect fill="#0f0f20" x="0" y="50.3" width="12.2" height="24.65" shape-rendering="crispEdges"/><rect fill="#0f0f20" x="12.2" y="50.3" width="36.6" height="24.65" shape-rendering="crispEdges"/><rect fill="#0f0f20" x="48.8" y="50.3" width="183" height="24.65" shape-rendering="crispEdges"/><rect fill="#150e2e" x="231.8" y="50.3" width="12.2" height="24.65" shape-rendering="crispEdges"/><rect fill="#0a0a15" x="244" y="50.3" width="366" height="24.65" shape-rendering="crispEdges"/><rect fill="#0a0a15" x="610" y="50.3" width="0" height="24.65" shape-rendering="crispEdges"/><rect fill="#0a0a15" x="610" y="50.3" width="366" height="24.65" shape-rendering="crispEdges"/><rect fill="#0f0f20" x="0" y="74.7" width="12.2" height="24.65" shape-rendering="crispEdges"/><rect fill="#0f0f20" x="12.2" y="74.7" width="36.6" height="24.65" shape-rendering="crispEdges"/><rect fill="#0f0f20" x="48.8" y="74.7" width="183" height="24.65" shape-rendering="crispEdges"/><rect fill="#150e2e" x="231.8" y="74.7" width="12.2" height="24.65" shape-rendering="crispEdges"/><rect fill="#572a4b" x="244" y="74.7" width="12.2" height="24.65" shape-rendering="crispEdges"/><rect fill="#0c0c1b" x="256.2" y="74.7" width="85.4" height="24.65" shape-rendering="crispEdges"/><rect fill="#0c0c1b" x="341.6" y="74.7" width="12.2" height="24.65" shape-rendering="crispEdges"/><rect fill="#572a4b" x="353.8" y="74.7" width="12.2" height="24.65" shape-rendering="crispEdges"/><rect fill="#0c0c1b" x="366" y="74.7" width="48.8" height="24.65" shape-rendering="crispEdges"/><rect fill="#0c0c1b" x="414.8" y="74.7" width="12.2" height="24.65" shape-rendering="crispEdges"/><rect fill="#572a4b" x="427" y="74.7" width="12.2" height="24.65" shape-rendering="crispEdges"/><rect fill="#0c0c1b" x="439.2" y="74.7" width="48.8" height="24.65" shape-rendering="crispEdges"/><rect fill="#0c0c1b" x="488" y="74.7" width="12.2" height="24.65" shape-rendering="crispEdges"/><rect fill="#572a4b" x="500.2" y="74.7" width="12.2" height="24.65" shape-rendering="crispEdges"/><rect fill="#0c0c1b" x="512.4" y="74.7" width="61" height="24.65" shape-rendering="crispEdges"/><rect fill="#0c0c1b" x="573.4" y="74.7" width="12.2" height="24.65" shape-rendering="crispEdges"/><rect fill="#572a4b" x="585.6" y="74.7" width="12.2" height="24.65" shape-rendering="crispEdges"/><rect fill="#0c0c1b" x="597.8" y="74.7" width="48.8" height="24.65" shape-rendering="crispEdges"/><rect fill="#0c0c1b" x="646.6" y="74.7" width="12.2" height="24.65" shape-rendering="crispEdges"/><rect fill="#572a4b" x="658.8" y="74.7" width="12.2" height="24.65" shape-rendering="crispEdges"/><rect fill="#0c0c1b" x="671" y="74.7" width="48.8" height="24.65" shape-rendering="crispEdges"/><rect fill="#0c0c1b" x="719.8" y="74.7" width="12.2" height="24.65" shape-rendering="crispEdges"/><rect fill="#572a4b" x="732" y="74.7" width="12.2" height="24.65" shape-rendering="crispEdges"/><rect fill="#0c0c1b" x="744.2" y="74.7" width="85.4" height="24.65" shape-rendering="crispEdges"/><rect fill="#0c0c1b" x="829.6" y="74.7" width="12.2" height="24.65" shape-rendering="crispEdges"/><rect fill="#572a4b" x="841.8" y="74.7" width="12.2" height="24.65" shape-rendering="crispEdges"/><rect fill="#0c0c1b" x="854" y="74.7" width="85.4" height="24.65" shape-rendering="crispEdges"/><rect fill="#0c0c1b" x="939.4" y="74.7" width="36.6" height="24.65" shape-rendering="crispEdges"/><rect fill="#0f0f20" x="0" y="99.1" width="24.4" height="24.65" shape-rendering="crispEdges"/><rect fill="#0f0f20" x="24.4" y="99.1" width="195.2" height="24.65" shape-rendering="crispEdges"/><rect fill="#0f0f20" x="219.6" y="99.1" width="12.2" height="24.65" shape-rendering="crispEdges"/><rect fill="#150e2e" x="231.8" y="99.1" width="12.2" height="24.65" shape-rendering="crispEdges"/><rect fill="#0c0c1b" x="244" y="99.1" width="732" height="24.65" shape-rendering="crispEdges"/><rect fill="#0f0f20" x="0" y="123.5" width="24.4" height="24.65" shape-rendering="crispEdges"/><rect fill="#0f0f20" x="24.4" y="123.5" width="24.4" height="24.65" shape-rendering="crispEdges"/><rect fill="#0f0f20" x="48.8" y="123.5" width="73.2" height="24.65" shape-rendering="crispEdges"/><rect fill="#0f0f20" x="122" y="123.5" width="109.8" height="24.65" shape-rendering="crispEdges"/><rect fill="#150e2e" x="231.8" y="123.5" width="12.2" height="24.65" shape-rendering="crispEdges"/><rect fill="#0c0c1b" x="244" y="123.5" width="732" height="24.65" shape-rendering="crispEdges"/><rect fill="#0f0f20" x="0" y="147.9" width="48.8" height="24.65" shape-rendering="crispEdges"/><rect fill="#0f0f20" x="48.8" y="147.9" width="12.2" height="24.65" shape-rendering="crispEdges"/><rect fill="#0f0f20" x="61" y="147.9" width="36.6" height="24.65" shape-rendering="crispEdges"/><rect fill="#0f0f20" x="97.6" y="147.9" width="134.2" height="24.65" shape-rendering="crispEdges"/><rect fill="#150e2e" x="231.8" y="147.9" width="12.2" height="24.65" shape-rendering="crispEdges"/><rect fill="#0c0c1b" x="244" y="147.9" width="732" height="24.65" shape-rendering="crispEdges"/><rect fill="#0f0f20" x="0" y="172.3" width="48.8" height="24.65" shape-rendering="crispEdges"/><rect fill="#0f0f20" x="48.8" y="172.3" width="12.2" height="24.65" shape-rendering="crispEdges"/><rect fill="#0f0f20" x="61" y="172.3" width="36.6" height="24.65" shape-rendering="crispEdges"/><rect fill="#0f0f20" x="97.6" y="172.3" width="134.2" height="24.65" shape-rendering="crispEdges"/><rect fill="#150e2e" x="231.8" y="172.3" width="12.2" height="24.65" shape-rendering="crispEdges"/><rect fill="#0c0c1b" x="244" y="172.3" width="305" height="24.65" shape-rendering="crispEdges"/><rect fill="#0c0c1b" x="549" y="172.3" width="122" height="24.65" shape-rendering="crispEdges"/><rect fill="#0c0c1b" x="671" y="172.3" width="305" height="24.65" shape-rendering="crispEdges"/><rect fill="#0f0f20" x="0" y="196.7" width="48.8" height="24.65" shape-rendering="crispEdges"/><rect fill="#0f0f20" x="48.8" y="196.7" width="12.2" height="24.65" shape-rendering="crispEdges"/><rect fill="#0f0f20" x="61" y="196.7" width="36.6" height="24.65" shape-rendering="crispEdges"/><rect fill="#0f0f20" x="97.6" y="196.7" width="134.2" height="24.65" shape-rendering="crispEdges"/><rect fill="#150e2e" x="231.8" y="196.7" width="12.2" height="24.65" shape-rendering="crispEdges"/><rect fill="#0c0c1b" x="244" y="196.7" width="732" height="24.65" shape-rendering="crispEdges"/><rect fill="#0f0f20" x="0" y="221.1" width="48.8" height="24.65" shape-rendering="crispEdges"/><rect fill="#0f0f20" x="48.8" y="221.1" width="12.2" height="24.65" shape-rendering="crispEdges"/><rect fill="#0f0f20" x="61" y="221.1" width="36.6" height="24.65" shape-rendering="crispEdges"/><rect fill="#0f0f20" x="97.6" y="221.1" width="134.2" height="24.65" shape-rendering="crispEdges"/><rect fill="#150e2e" x="231.8" y="221.1" width="12.2" height="24.65" shape-rendering="crispEdges"/><rect fill="#0c0c1b" x="244" y="221.1" width="732" height="24.65" shape-rendering="crispEdges"/><rect fill="#0f0f20" x="0" y="245.5" width="48.8" height="24.65" shape-rendering="crispEdges"/><rect fill="#0f0f20" x="48.8" y="245.5" width="24.4" height="24.65" shape-rendering="crispEdges"/><rect fill="#0f0f20" x="73.2" y="245.5" width="109.8" height="24.65" shape-rendering="crispEdges"/><rect fill="#0f0f20" x="183" y="245.5" width="48.8" height="24.65" shape-rendering="crispEdges"/><rect fill="#150e2e" x="231.8" y="245.5" width="12.2" height="24.65" shape-rendering="crispEdges"/><rect fill="#0c0c1b" x="244" y="245.5" width="732" height="24.65" shape-rendering="crispEdges"/><rect fill="#0f0f20" x="0" y="269.9" width="73.2" height="24.65" shape-rendering="crispEdges"/><rect fill="#0f0f20" x="73.2" y="269.9" width="12.2" height="24.65" shape-rendering="crispEdges"/><rect fill="#0f0f20" x="85.4" y="269.9" width="36.6" height="24.65" shape-rendering="crispEdges"/><rect fill="#0f0f20" x="122" y="269.9" width="109.8" height="24.65" shape-rendering="crispEdges"/><rect fill="#150e2e" x="231.8" y="269.9" width="12.2" height="24.65" shape-rendering="crispEdges"/><rect fill="#0c0c1b" x="244" y="269.9" width="732" height="24.65" shape-rendering="crispEdges"/><rect fill="#0f0f20" x="0" y="294.3" width="73.2" height="24.65" shape-rendering="crispEdges"/><rect fill="#0f0f20" x="73.2" y="294.3" width="12.2" height="24.65" shape-rendering="crispEdges"/><rect fill="#0f0f20" x="85.4" y="294.3" width="36.6" height="24.65" shape-rendering="crispEdges"/><rect fill="#0f0f20" x="122" y="294.3" width="109.8" height="24.65" shape-rendering="crispEdges"/><rect fill="#150e2e" x="231.8" y="294.3" width="12.2" height="24.65" shape-rendering="crispEdges"/><rect fill="#15152c" x="244" y="294.3" width="12.2" height="24.65" shape-rendering="crispEdges"/><rect fill="#15152c" x="256.2" y="294.3" width="48.8" height="24.65" shape-rendering="crispEdges"/><rect fill="#15152c" x="305" y="294.3" width="256.2" height="24.65" shape-rendering="crispEdges"/><rect fill="#15152c" x="561.2" y="294.3" width="12.2" height="24.65" shape-rendering="crispEdges"/><rect fill="#15152c" x="573.4" y="294.3" width="61" height="24.65" shape-rendering="crispEdges"/><rect fill="#15152c" x="634.4" y="294.3" width="244" height="24.65" shape-rendering="crispEdges"/><rect fill="#201433" x="878.4" y="294.3" width="12.2" height="24.65" shape-rendering="crispEdges"/><rect fill="#201433" x="890.6" y="294.3" width="12.2" height="24.65" shape-rendering="crispEdges"/><rect fill="#201433" x="902.8" y="294.3" width="61" height="24.65" shape-rendering="crispEdges"/><rect fill="#201433" x="963.8" y="294.3" width="12.2" height="24.65" shape-rendering="crispEdges"/><rect fill="#0f0f20" x="0" y="318.7" width="73.2" height="24.65" shape-rendering="crispEdges"/><rect fill="#0f0f20" x="73.2" y="318.7" width="12.2" height="24.65" shape-rendering="crispEdges"/><rect fill="#0f0f20" x="85.4" y="318.7" width="36.6" height="24.65" shape-rendering="crispEdges"/><rect fill="#0f0f20" x="122" y="318.7" width="109.8" height="24.65" shape-rendering="crispEdges"/><rect fill="#150e2e" x="231.8" y="318.7" width="12.2" height="24.65" shape-rendering="crispEdges"/><rect fill="#572a4b" x="244" y="318.7" width="12.2" height="24.65" shape-rendering="crispEdges"/><rect fill="#0b0b17" x="256.2" y="318.7" width="48.8" height="24.65" shape-rendering="crispEdges"/><rect fill="#0b0b17" x="305" y="318.7" width="12.2" height="24.65" shape-rendering="crispEdges"/><rect fill="#572a4b" x="317.2" y="318.7" width="12.2" height="24.65" shape-rendering="crispEdges"/><rect fill="#0b0b17" x="329.4" y="318.7" width="85.4" height="24.65" shape-rendering="crispEdges"/><rect fill="#0b0b17" x="414.8" y="318.7" width="12.2" height="24.65" shape-rendering="crispEdges"/><rect fill="#572a4b" x="427" y="318.7" width="12.2" height="24.65" shape-rendering="crispEdges"/><rect fill="#0b0b17" x="439.2" y="318.7" width="85.4" height="24.65" shape-rendering="crispEdges"/><rect fill="#0b0b17" x="524.6" y="318.7" width="12.2" height="24.65" shape-rendering="crispEdges"/><rect fill="#572a4b" x="536.8" y="318.7" width="12.2" height="24.65" shape-rendering="crispEdges"/><rect fill="#0b0b17" x="549" y="318.7" width="85.4" height="24.65" shape-rendering="crispEdges"/><rect fill="#0b0b17" x="634.4" y="318.7" width="12.2" height="24.65" shape-rendering="crispEdges"/><rect fill="#572a4b" x="646.6" y="318.7" width="12.2" height="24.65" shape-rendering="crispEdges"/><rect fill="#0b0b17" x="658.8" y="318.7" width="61" height="24.65" shape-rendering="crispEdges"/><rect fill="#0b0b17" x="719.8" y="318.7" width="12.2" height="24.65" shape-rendering="crispEdges"/><rect fill="#572a4b" x="732" y="318.7" width="12.2" height="24.65" shape-rendering="crispEdges"/><rect fill="#0b0b17" x="744.2" y="318.7" width="146.4" height="24.65" shape-rendering="crispEdges"/><rect fill="#0b0b17" x="890.6" y="318.7" width="85.4" height="24.65" shape-rendering="crispEdges"/><rect fill="#0f0f20" x="0" y="343.1" width="24.4" height="24.65" shape-rendering="crispEdges"/><rect fill="#0f0f20" x="24.4" y="343.1" width="24.4" height="24.65" shape-rendering="crispEdges"/><rect fill="#0f0f20" x="48.8" y="343.1" width="73.2" height="24.65" shape-rendering="crispEdges"/><rect fill="#0f0f20" x="122" y="343.1" width="109.8" height="24.65" shape-rendering="crispEdges"/><rect fill="#150e2e" x="231.8" y="343.1" width="12.2" height="24.65" shape-rendering="crispEdges"/><rect fill="#0b0b17" x="244" y="343.1" width="732" height="24.65" shape-rendering="crispEdges"/><rect fill="#0f0f20" x="0" y="367.5" width="48.8" height="24.65" shape-rendering="crispEdges"/><rect fill="#0f0f20" x="48.8" y="367.5" width="12.2" height="24.65" shape-rendering="crispEdges"/><rect fill="#0f0f20" x="61" y="367.5" width="36.6" height="24.65" shape-rendering="crispEdges"/><rect fill="#0f0f20" x="97.6" y="367.5" width="134.2" height="24.65" shape-rendering="crispEdges"/><rect fill="#090920" x="231.8" y="367.5" width="12.2" height="24.65" shape-rendering="crispEdges"/><rect fill="#0b0b17" x="244" y="367.5" width="732" height="24.65" shape-rendering="crispEdges"/><rect fill="#0f0f20" x="0" y="391.9" width="48.8" height="24.65" shape-rendering="crispEdges"/><rect fill="#0f0f20" x="48.8" y="391.9" width="12.2" height="24.65" shape-rendering="crispEdges"/><rect fill="#0f0f20" x="61" y="391.9" width="36.6" height="24.65" shape-rendering="crispEdges"/><rect fill="#0f0f20" x="97.6" y="391.9" width="134.2" height="24.65" shape-rendering="crispEdges"/><rect fill="#090920" x="231.8" y="391.9" width="12.2" height="24.65" shape-rendering="crispEdges"/><rect fill="#0b0b17" x="244" y="391.9" width="732" height="24.65" shape-rendering="crispEdges"/><rect fill="#0f0f20" x="0" y="416.3" width="24.4" height="24.65" shape-rendering="crispEdges"/><rect fill="#0f0f20" x="24.4" y="416.3" width="24.4" height="24.65" shape-rendering="crispEdges"/><rect fill="#0f0f20" x="48.8" y="416.3" width="73.2" height="24.65" shape-rendering="crispEdges"/><rect fill="#0f0f20" x="122" y="416.3" width="109.8" height="24.65" shape-rendering="crispEdges"/><rect fill="#090920" x="231.8" y="416.3" width="12.2" height="24.65" shape-rendering="crispEdges"/><rect fill="#0b0b17" x="244" y="416.3" width="732" height="24.65" shape-rendering="crispEdges"/><rect fill="#15152c" x="0" y="440.7" width="12.2" height="24.65" shape-rendering="crispEdges"/><rect fill="#15152c" x="12.2" y="440.7" width="183" height="24.65" shape-rendering="crispEdges"/><rect fill="#15152c" x="195.2" y="440.7" width="48.8" height="24.65" shape-rendering="crispEdges"/><rect fill="#0b0b17" x="244" y="440.7" width="732" height="24.65" shape-rendering="crispEdges"/><rect fill="#15152c" x="0" y="465.1" width="12.2" height="24.65" shape-rendering="crispEdges"/><rect fill="#15152c" x="12.2" y="465.1" width="207.4" height="24.65" shape-rendering="crispEdges"/><rect fill="#15152c" x="219.6" y="465.1" width="24.4" height="24.65" shape-rendering="crispEdges"/><rect fill="#0b0b17" x="244" y="465.1" width="732" height="24.65" shape-rendering="crispEdges"/><rect fill="#15152c" x="0" y="489.5" width="12.2" height="24.65" shape-rendering="crispEdges"/><rect fill="#15152c" x="12.2" y="489.5" width="170.8" height="24.65" shape-rendering="crispEdges"/><rect fill="#15152c" x="183" y="489.5" width="61" height="24.65" shape-rendering="crispEdges"/><rect fill="#0b0b17" x="244" y="489.5" width="732" height="24.65" shape-rendering="crispEdges"/><rect fill="#15152c" x="0" y="513.9" width="12.2" height="24.65" shape-rendering="crispEdges"/><rect fill="#15152c" x="12.2" y="513.9" width="183" height="24.65" shape-rendering="crispEdges"/><rect fill="#15152c" x="195.2" y="513.9" width="48.8" height="24.65" shape-rendering="crispEdges"/><rect fill="#0b0b17" x="244" y="513.9" width="732" height="24.65" shape-rendering="crispEdges"/><rect fill="#572a4b" x="0" y="538.3" width="353.8" height="24.65" shape-rendering="crispEdges"/><rect fill="#572a4b" x="353.8" y="538.3" width="12.2" height="24.65" shape-rendering="crispEdges"/><rect fill="#572a4b" x="366" y="538.3" width="231.8" height="24.65" shape-rendering="crispEdges"/><rect fill="#572a4b" x="597.8" y="538.3" width="12.2" height="24.65" shape-rendering="crispEdges"/><rect fill="#572a4b" x="610" y="538.3" width="366" height="24.65" shape-rendering="crispEdges"/><rect fill="#0a0a15" x="0" y="562.7" width="402.6" height="24.65" shape-rendering="crispEdges"/><rect fill="#0a0a15" x="402.6" y="562.7" width="36.6" height="24.65" shape-rendering="crispEdges"/><rect fill="#0a0a15" x="439.2" y="562.7" width="134.2" height="24.65" shape-rendering="crispEdges"/><rect fill="#0a0a15" x="573.4" y="562.7" width="402.6" height="24.65" shape-rendering="crispEdges"/>
    <g class="terminal-matrix">
    <text class="terminal-r2" x="12.2" y="20" textLength="85.4" clip-path="url(#terminal-line-0)">Posting</text><text class="terminal-r3" x="976" y="20" textLength="12.2" clip-path="url(#terminal-line-0)">
</text><text class="terminal-r4" x="0" y="44.4" textLength="36.6" clip-path="url(#terminal-line-1)">tab</text><text class="terminal-r5" x="36.6" y="44.4" textLength="73.2" clip-path="url(#terminal-line-1)">T&#160;echo</text><text class="terminal-r4" x="244" y="44.4" textLength="12.2" clip-path="url(#terminal-line-1)">1</text><text class="terminal-r8" x="256.2" y="44.4" textLength="12.2" clip-path="url(#terminal-line-1)">G</text><text class="terminal-r9" x="268.4" y="44.4" textLength="24.4" clip-path="url(#terminal-line-1)">ET</text><text class="terminal-r10" x="353.8" y="44.4" textLength="12.2" clip-path="url(#terminal-line-1)">▼</text><text class="terminal-r4" x="378.2" y="44.4" textLength="12.2" clip-path="url(#terminal-line-1)">2</text><text class="terminal-r11" x="390.4" y="44.4" textLength="439.2" clip-path="url(#terminal-line-1)">Enter&#160;a&#160;URL&#160;or&#160;paste&#160;a&#160;curl&#160;command…</text><text class="terminal-r13" x="890.6" y="44.4" textLength="73.2" clip-path="url(#terminal-line-1)">&#160;Send&#160;</text><text class="terminal-r3" x="976" y="44.4" textLength="12.2" clip-path="url(#terminal-line-1)">
</text><text class="terminal-r9" x="12.2" y="68.8" textLength="36.6" clip-path="url(#terminal-line-2)">GET</text><text class="terminal-r6" x="48.8" y="68.8" textLength="183" clip-path="url(#terminal-line-2)">&#160;get&#160;random&#160;use</text><text class="terminal-r3" x="976" y="68.8" textLength="12.2" clip-path="url(#terminal-line-2)">
</text><text class="terminal-r15" x="12.2" y="93.2" textLength="36.6" clip-path="url(#terminal-line-3)">POS</text><text class="terminal-r6" x="48.8" y="93.2" textLength="183" clip-path="url(#terminal-line-3)">&#160;echo&#160;post&#160;&#160;&#160;&#160;&#160;</text><text class="terminal-r4" x="244" y="93.2" textLength="12.2" clip-path="url(#terminal-line-3)">q</text><text class="terminal-r12" x="256.2" y="93.2" textLength="85.4" clip-path="url(#terminal-line-3)">Headers</text><text class="terminal-r4" x="353.8" y="93.2" textLength="12.2" clip-path="url(#terminal-line-3)">w</text><text class="terminal-r16" x="366" y="93.2" textLength="48.8" clip-path="url(#terminal-line-3)">Body</text><text class="terminal-r4" x="427" y="93.2" textLength="12.2" clip-path="url(#terminal-line-3)">e</text><text class="terminal-r16" x="439.2" y="93.2" textLength="48.8" clip-path="url(#terminal-line-3)">Path</text><text class="terminal-r4" x="500.2" y="93.2" textLength="12.2" clip-path="url(#terminal-line-3)">r</text><text class="terminal-r16" x="512.4" y="93.2" textLength="61" clip-path="url(#terminal-line-3)">Query</text><text class="terminal-r4" x="585.6" y="93.2" textLength="12.2" clip-path="url(#terminal-line-3)">t</text><text class="terminal-r16" x="597.8" y="93.2" textLength="48.8" clip-path="url(#terminal-line-3)">Auth</text><text class="terminal-r4" x="658.8" y="93.2" textLength="12.2" clip-path="url(#terminal-line-3)">y</text><text class="terminal-r16" x="671" y="93.2" textLength="48.8" clip-path="url(#terminal-line-3)">Info</text><text class="terminal-r4" x="732" y="93.2" textLength="12.2" clip-path="url(#terminal-line-3)">u</text><text class="terminal-r16" x="744.2" y="93.2" textLength="85.4" clip-path="url(#terminal-line-3)">Scripts</text><text class="terminal-r4" x="841.8" y="93.2" textLength="12.2" clip-path="url(#terminal-line-3)">i</text><text class="terminal-r16" x="854" y="93.2" textLength="85.4" clip-path="url(#terminal-line-3)">Options</text><text class="terminal-r3" x="976" y="93.2" textLength="12.2" clip-path="url(#terminal-line-3)">
</text><text class="terminal-r17" x="0" y="117.6" textLength="24.4" clip-path="url(#terminal-line-4)">▼&#160;</text><text class="terminal-r18" x="24.4" y="117.6" textLength="195.2" clip-path="url(#terminal-line-4)">jsonplaceholder/</text><text class="terminal-r19" x="244" y="117.6" textLength="732" clip-path="url(#terminal-line-4)">╱╱╱╱╱╱╱╱╱╱╱╱╱╱╱╱╱╱╱╱╱╱╱╱╱╱╱╱╱╱╱╱╱╱╱╱╱╱╱╱╱╱╱╱╱╱╱╱╱╱╱╱╱╱╱╱╱╱╱╱</text><text class="terminal-r3" x="976" y="117.6" textLength="12.2" clip-path="url(#terminal-line-4)">
</text><text class="terminal-r17" x="24.4" y="142" textLength="24.4" clip-path="url(#terminal-line-5)">▼&#160;</text><text class="terminal-r18" x="48.8" y="142" textLength="73.2" clip-path="url(#terminal-line-5)">posts/</text><text class="terminal-r19" x="244" y="142" textLength="732" clip-path="url(#terminal-line-5)">╱╱╱╱╱╱╱╱╱╱╱╱╱╱╱╱╱╱╱╱╱╱╱╱╱╱╱╱╱╱╱╱╱╱╱╱╱╱╱╱╱╱╱╱╱╱╱╱╱╱╱╱╱╱╱╱╱╱╱╱</text><text class="terminal-r3" x="976" y="142" textLength="12.2" clip-path="url(#terminal-line-5)">
</text><text class="terminal-r9" x="61" y="166.4" textLength="36.6" clip-path="url(#terminal-line-6)">GET</text><text class="terminal-r6" x="97.6" y="166.4" textLength="134.2" clip-path="url(#terminal-line-6)">&#160;get&#160;all&#160;&#160;&#160;</text><text class="terminal-r19" x="244" y="166.4" textLength="732" clip-path="url(#terminal-line-6)">╱╱╱╱╱╱╱╱╱╱╱╱╱╱╱╱╱╱╱╱╱╱╱╱╱╱╱╱╱╱╱╱╱╱╱╱╱╱╱╱╱╱╱╱╱╱╱╱╱╱╱╱╱╱╱╱╱╱╱╱</text><text class="terminal-r3" x="976" y="166.4" textLength="12.2" clip-path="url(#terminal-line-6)">
</text><text class="terminal-r9" x="61" y="190.8" textLength="36.6" clip-path="url(#terminal-line-7)">GET</text><text class="terminal-r6" x="97.6" y="190.8" textLength="134.2" clip-path="url(#terminal-line-7)">&#160;get&#160;one&#160;&#160;&#160;</text><text class="terminal-r19" x="244" y="190.8" textLength="305" clip-path="url(#terminal-line-7)">╱╱╱╱╱╱╱╱╱╱╱╱╱╱╱╱╱╱╱╱╱╱╱╱╱</text><text class="terminal-r21" x="549" y="190.8" textLength="122" clip-path="url(#terminal-line-7)">No&#160;headers</text><text class="terminal-r19" x="671" y="190.8" textLength="305" clip-path="url(#terminal-line-7)">╱╱╱╱╱╱╱╱╱╱╱╱╱╱╱╱╱╱╱╱╱╱╱╱╱</text><text class="terminal-r3" x="976" y="190.8" textLength="12.2" clip-path="url(#terminal-line-7)">
</text><text class="terminal-r15" x="61" y="215.2" textLength="36.6" clip-path="url(#terminal-line-8)">POS</text><text class="terminal-r6" x="97.6" y="215.2" textLength="134.2" clip-path="url(#terminal-line-8)">&#160;create&#160;&#160;&#160;&#160;</text><text class="terminal-r19" x="244" y="215.2" textLength="732" clip-path="url(#terminal-line-8)">╱╱╱╱╱╱╱╱╱╱╱╱╱╱╱╱╱╱╱╱╱╱╱╱╱╱╱╱╱╱╱╱╱╱╱╱╱╱╱╱╱╱╱╱╱╱╱╱╱╱╱╱╱╱╱╱╱╱╱╱</text><text class="terminal-r3" x="976" y="215.2" textLength="12.2" clip-path="url(#terminal-line-8)">
</text><text class="terminal-r22" x="61" y="239.6" textLength="36.6" clip-path="url(#terminal-line-9)">DEL</text><text class="terminal-r6" x="97.6" y="239.6" textLength="134.2" clip-path="url(#terminal-line-9)">&#160;delete&#160;a&#160;p</text><text class="terminal-r19" x="244" y="239.6" textLength="732" clip-path="url(#terminal-line-9)">╱╱╱╱╱╱╱╱╱╱╱╱╱╱╱╱╱╱╱╱╱╱╱╱╱╱╱╱╱╱╱╱╱╱╱╱╱╱╱╱╱╱╱╱╱╱╱╱╱╱╱╱╱╱╱╱╱╱╱╱</text><text class="terminal-r3" x="976" y="239.6" textLength="12.2" clip-path="url(#terminal-line-9)">
</text><text class="terminal-r17" x="48.8" y="264" textLength="24.4" clip-path="url(#terminal-line-10)">▼&#160;</text><text class="terminal-r18" x="73.2" y="264" textLength="109.8" clip-path="url(#terminal-line-10)">comments/</text><text class="terminal-r19" x="244" y="264" textLength="732" clip-path="url(#terminal-line-10)">╱╱╱╱╱╱╱╱╱╱╱╱╱╱╱╱╱╱╱╱╱╱╱╱╱╱╱╱╱╱╱╱╱╱╱╱╱╱╱╱╱╱╱╱╱╱╱╱╱╱╱╱╱╱╱╱╱╱╱╱</text><text class="terminal-r3" x="976" y="264" textLength="12.2" clip-path="url(#terminal-line-10)">
</text><text class="terminal-r9" x="85.4" y="288.4" textLength="36.6" clip-path="url(#terminal-line-11)">GET</text><text class="terminal-r6" x="122" y="288.4" textLength="109.8" clip-path="url(#terminal-line-11)">&#160;get&#160;comm</text><text class="terminal-r19" x="244" y="288.4" textLength="732" clip-path="url(#terminal-line-11)">╱╱╱╱╱╱╱╱╱╱╱╱╱╱╱╱╱╱╱╱╱╱╱╱╱╱╱╱╱╱╱╱╱╱╱╱╱╱╱╱╱╱╱╱╱╱╱╱╱╱╱╱╱╱╱╱╱╱╱╱</text><text class="terminal-r3" x="976" y="288.4" textLength="12.2" clip-path="url(#terminal-line-11)">
</text><text class="terminal-r9" x="85.4" y="312.8" textLength="36.6" clip-path="url(#terminal-line-12)">GET</text><text class="terminal-r6" x="122" y="312.8" textLength="109.8" clip-path="url(#terminal-line-12)">&#160;get&#160;comm</text><text class="terminal-r23" x="244" y="312.8" textLength="12.2" clip-path="url(#terminal-line-12)">▏</text><text class="terminal-r11" x="256.2" y="312.8" textLength="48.8" clip-path="url(#terminal-line-12)">Name</text><text class="terminal-r23" x="561.2" y="312.8" textLength="12.2" clip-path="url(#terminal-line-12)">▏</text><text class="terminal-r11" x="573.4" y="312.8" textLength="61" clip-path="url(#terminal-line-12)">Value</text><text class="terminal-r24" x="878.4" y="312.8" textLength="12.2" clip-path="url(#terminal-line-12)">▏</text><text class="terminal-r25" x="902.8" y="312.8" textLength="61" clip-path="url(#terminal-line-12)">&#160;Add&#160;</text><text class="terminal-r3" x="976" y="312.8" textLength="12.2" clip-path="url(#terminal-line-12)">
</text><text class="terminal-r26" x="85.4" y="337.2" textLength="36.6" clip-path="url(#terminal-line-13)">PUT</text><text class="terminal-r6" x="122" y="337.2" textLength="109.8" clip-path="url(#terminal-line-13)">&#160;edit&#160;a&#160;c</text><text class="terminal-r4" x="244" y="337.2" textLength="12.2" clip-path="url(#terminal-line-13)">a</text><text class="terminal-r27" x="256.2" y="337.2" textLength="48.8" clip-path="url(#terminal-line-13)">Body</text><text class="terminal-r4" x="317.2" y="337.2" textLength="12.2" clip-path="url(#terminal-line-13)">s</text><text class="terminal-r28" x="329.4" y="337.2" textLength="85.4" clip-path="url(#terminal-line-13)">Headers</text><text class="terminal-r4" x="427" y="337.2" textLength="12.2" clip-path="url(#terminal-line-13)">d</text><text class="terminal-r28" x="439.2" y="337.2" textLength="85.4" clip-path="url(#terminal-line-13)">Cookies</text><text class="terminal-r4" x="536.8" y="337.2" textLength="12.2" clip-path="url(#terminal-line-13)">f</text><text class="terminal-r28" x="549" y="337.2" textLength="85.4" clip-path="url(#terminal-line-13)">Scripts</text><text class="terminal-r4" x="646.6" y="337.2" textLength="12.2" clip-path="url(#terminal-line-13)">g</text><text class="terminal-r28" x="658.8" y="337.2" textLength="61" clip-path="url(#terminal-line-13)">Trace</text><text class="terminal-r4" x="732" y="337.2" textLength="12.2" clip-path="url(#terminal-line-13)">h</text><text class="terminal-r28" x="744.2" y="337.2" textLength="146.4" clip-path="url(#terminal-line-13)">Sent&#160;Request</text><text class="terminal-r3" x="976" y="337.2" textLength="12.2" clip-path="url(#terminal-line-13)">
</text><text class="terminal-r17" x="24.4" y="361.6" textLength="24.4" clip-path="url(#terminal-line-14)">▼&#160;</text><text class="terminal-r18" x="48.8" y="361.6" textLength="73.2" clip-path="url(#terminal-line-14)">todos/</text><text class="terminal-r23" x="231.8" y="361.6" textLength="12.2" clip-path="url(#terminal-line-14)">▆</text><text class="terminal-r3" x="976" y="361.6" textLength="12.2" clip-path="url(#terminal-line-14)">
</text><text class="terminal-r9" x="61" y="386" textLength="36.6" clip-path="url(#terminal-line-15)">GET</text><text class="terminal-r6" x="97.6" y="386" textLength="134.2" clip-path="url(#terminal-line-15)">&#160;get&#160;all&#160;&#160;&#160;</text><text class="terminal-r3" x="976" y="386" textLength="12.2" clip-path="url(#terminal-line-15)">
</text><text class="terminal-r9" x="61" y="410.4" textLength="36.6" clip-path="url(#terminal-line-16)">GET</text><text class="terminal-r6" x="97.6" y="410.4" textLength="134.2" clip-path="url(#terminal-line-16)">&#160;get&#160;one&#160;&#160;&#160;</text><text class="terminal-r3" x="976" y="410.4" textLength="12.2" clip-path="url(#terminal-line-16)">
</text><text class="terminal-r17" x="24.4" y="434.8" textLength="24.4" clip-path="url(#terminal-line-17)">▼&#160;</text><text class="terminal-r18" x="48.8" y="434.8" textLength="73.2" clip-path="url(#terminal-line-17)">users/</text><text class="terminal-r3" x="976" y="434.8" textLength="12.2" clip-path="url(#terminal-line-17)">
</text><text class="terminal-r29" x="12.2" y="459.2" textLength="183" clip-path="url(#terminal-line-18)">This&#160;is&#160;an&#160;echo</text><text class="terminal-r3" x="976" y="459.2" textLength="12.2" clip-path="url(#terminal-line-18)">
</text><text class="terminal-r29" x="12.2" y="483.6" textLength="207.4" clip-path="url(#terminal-line-19)">server&#160;we&#160;can&#160;use</text><text class="terminal-r3" x="976" y="483.6" textLength="12.2" clip-path="url(#terminal-line-19)">
</text><text class="terminal-r29" x="12.2" y="508" textLength="170.8" clip-path="url(#terminal-line-20)">to&#160;see&#160;exactly</text><text class="terminal-r3" x="976" y="508" textLength="12.2" clip-path="url(#terminal-line-20)">
</text><text class="terminal-r29" x="12.2" y="532.4" textLength="183" clip-path="url(#terminal-line-21)">what&#160;request&#160;is</text><text class="terminal-r3" x="976" y="532.4" textLength="12.2" clip-path="url(#terminal-line-21)">
</text><text class="terminal-r30" x="0" y="556.8" textLength="353.8" clip-path="url(#terminal-line-22)">╱╱╱╱╱╱╱╱╱╱╱╱╱╱╱╱╱╱╱╱╱╱╱╱╱╱╱╱╱</text><text class="terminal-r31" x="366" y="556.8" textLength="231.8" clip-path="url(#terminal-line-22)">Press&#160;a&#160;key&#160;to&#160;jump</text><text class="terminal-r30" x="610" y="556.8" textLength="366" clip-path="url(#terminal-line-22)">╱╱╱╱╱╱╱╱╱╱╱╱╱╱╱╱╱╱╱╱╱╱╱╱╱╱╱╱╱╱</text><text class="terminal-r3" x="976" y="556.8" textLength="12.2" clip-path="url(#terminal-line-22)">
</text><text class="terminal-r32" x="402.6" y="581.2" textLength="36.6" clip-path="url(#terminal-line-23)">ESC</text><text class="terminal-r33" x="439.2" y="581.2" textLength="134.2" clip-path="url(#terminal-line-23)">&#160;to&#160;dismiss</text>
    </g>
    </g>
</svg>
